<svg width="28" height="28" viewBox="0 0 28 28" fill="none" xmlns="http://www.w3.org/2000/svg">
<g clip-path="url(#clip0_2201_170)">
<path d="M17.8656 3.70313C18.199 3.70313 18.6173 3.79065 18.9532 3.87302C20.1245 4.15619 21.5133 4.50757 22.4992 5.24765C23.4169 5.93626 24.1299 7.13713 24.6808 8.35731C25.8263 10.8993 26.6231 14.2883 26.8985 16.8651C27.0298 18.0878 27.062 19.3183 26.8264 20.1459C26.7106 20.5526 26.4596 20.859 26.2833 21.0469C25.7453 21.6171 25.0528 22.0431 24.3681 22.4305L24.0283 22.6223C23.8045 22.7468 23.5792 22.8687 23.3525 22.9879L22.6807 23.3354L21.7578 23.7949L21.0151 24.1604C20.7434 24.2965 20.4322 24.3321 20.1367 24.2608C19.8412 24.1895 19.5805 24.0159 19.4008 23.7707C19.221 23.5256 19.1338 23.2248 19.1546 22.9216C19.1754 22.6183 19.3029 22.3322 19.5144 22.1139L18.9558 20.9967C17.3495 21.4848 15.6792 21.7295 14.0004 21.7226C12.2371 21.7226 10.5548 21.4652 9.04505 20.9967L8.48773 22.1113C8.70005 22.3293 8.8283 22.6153 8.84974 22.9188C8.87118 23.2223 8.78441 23.5236 8.60484 23.7692C8.42527 24.0148 8.16449 24.1889 7.86879 24.2605C7.57309 24.3321 7.26158 24.2966 6.98954 24.1604L6.28935 23.8129C5.51194 23.4293 4.73453 23.0458 3.97771 22.6223C3.18742 22.1808 2.34952 21.711 1.72269 21.0456C1.47255 20.7928 1.28634 20.4839 1.17954 20.1446C0.942708 19.3183 0.976172 18.0891 1.10617 16.8651C1.38161 14.2883 2.17833 10.8993 3.32514 8.35731C3.87474 7.13713 4.5878 5.93626 5.5055 5.24765C6.49143 4.50757 7.88021 4.15619 9.05148 3.87302C9.38742 3.79065 9.80444 3.70313 10.1391 3.70313C10.3242 3.70297 10.5072 3.74274 10.6755 3.81973C10.8439 3.89671 10.9936 4.00911 11.1146 4.14924C11.2355 4.28937 11.3248 4.45395 11.3764 4.63173C11.4279 4.80952 11.4405 4.99634 11.4133 5.17944C12.2698 5.05271 13.1346 4.98947 14.0004 4.99023C14.8898 4.99023 15.7586 5.05459 16.5926 5.18072C16.5652 4.99753 16.5777 4.81057 16.6291 4.63263C16.6806 4.45468 16.7699 4.28994 16.8909 4.14966C17.0118 4.00938 17.1617 3.89687 17.3301 3.8198C17.4985 3.74274 17.6804 3.70294 17.8656 3.70313ZM19.6083 6.74456C19.4153 6.68278 19.3689 6.70981 19.2994 6.82565L19.2196 6.9698C19.0116 7.32641 18.6957 7.60779 18.3175 7.7734C17.9394 7.93902 17.5184 7.98032 17.1152 7.89137C16.0916 7.67163 15.0474 7.56203 14.0004 7.56445C12.9038 7.56445 11.8548 7.68029 10.8856 7.89137C10.4824 7.98032 10.0615 7.93902 9.68328 7.7734C9.30509 7.60779 8.98923 7.32641 8.78119 6.9698L8.70139 6.82693C8.63317 6.7111 8.58684 6.68407 8.39506 6.74456C7.93685 6.89 7.44517 7.04574 7.05003 7.30703C6.68063 7.58375 6.18767 8.27236 5.67154 9.41659C4.68562 11.6008 3.91335 14.8276 3.66623 17.1392C3.61474 17.6271 3.58771 18.0454 3.58128 18.3903V18.7687C3.58643 18.9978 3.60316 19.1793 3.62633 19.3119C3.95325 19.6311 4.3574 19.8821 4.76284 20.1125L5.64065 20.5977L6.2147 20.9002L6.68321 19.9632C6.45638 19.7518 6.31346 19.4657 6.28073 19.1574C6.24799 18.8491 6.32765 18.5393 6.50504 18.285C6.68244 18.0308 6.94565 17.8491 7.2463 17.7733C7.54695 17.6976 7.86483 17.733 8.1415 17.8729C9.70662 18.6593 11.7428 19.1484 14.0004 19.1484C16.2567 19.1484 18.2942 18.6567 19.8593 17.8742C20.1242 17.7415 20.4267 17.7042 20.7158 17.7687C21.0049 17.8331 21.263 17.9953 21.4464 18.2279C21.6299 18.4605 21.7275 18.7492 21.7228 19.0454C21.7181 19.3416 21.6113 19.6271 21.4206 19.8537L21.3176 19.9632L21.7861 20.9027C22.1697 20.7045 22.5545 20.4947 22.9407 20.2811C23.4426 20.003 23.9703 19.7109 24.3784 19.3119C24.4015 19.1793 24.417 18.9978 24.4234 18.7687V18.3903C24.413 17.9718 24.3846 17.554 24.3385 17.1379C24.0913 14.8276 23.3191 11.6008 22.3331 9.41531C21.8183 8.27236 21.324 7.58375 20.9559 7.30703C20.5595 7.04574 20.0678 6.89 19.6083 6.74456ZM9.81731 12.0693C10.4147 12.0693 10.9876 12.3066 11.41 12.729C11.8324 13.1515 12.0697 13.7244 12.0697 14.3218C12.0697 14.9191 11.8324 15.4921 11.41 15.9145C10.9876 16.3369 10.4147 16.5742 9.81731 16.5742C9.21993 16.5742 8.64701 16.3369 8.2246 15.9145C7.80218 15.4921 7.56487 14.9191 7.56487 14.3218C7.56487 13.7244 7.80218 13.1515 8.2246 12.729C8.64701 12.3066 9.21993 12.0693 9.81731 12.0693ZM18.1835 12.0693C18.7809 12.0693 19.3538 12.3066 19.7762 12.729C20.1986 13.1515 20.4359 13.7244 20.4359 14.3218C20.4359 14.9191 20.1986 15.4921 19.7762 15.9145C19.3538 16.3369 18.7809 16.5742 18.1835 16.5742C17.5861 16.5742 17.0132 16.3369 16.5908 15.9145C16.1684 15.4921 15.9311 14.9191 15.9311 14.3218C15.9311 13.7244 16.1684 13.1515 16.5908 12.729C17.0132 12.3066 17.5861 12.0693 18.1835 12.0693Z" fill="#E9FAF7"/>
</g>
<defs>
<clipPath id="clip0_2201_170">
<rect width="28" height="28" fill="white"/>
</clipPath>
</defs>
</svg>
