<svg width="28" height="28" viewBox="0 0 28 28" fill="none" xmlns="http://www.w3.org/2000/svg">
<path d="M17 14L12 17V11L17 14Z" fill="#E9FAF7" stroke="#E9FAF7" stroke-width="1.5" stroke-linecap="round" stroke-linejoin="round"/>
<path d="M1 14.8975V13.1025C1 9.43282 1 7.59732 2.1765 6.41718C3.3543 5.23577 5.2081 5.18507 8.9144 5.08239C10.6694 5.03423 12.4634 5 14 5C15.5353 5 17.3293 5.03423 19.0856 5.08239C22.7919 5.18507 24.6457 5.23577 25.8222 6.41718C27 7.59732 27 9.43408 27 13.1025V14.8962C27 18.5672 27 20.4014 25.8235 21.5828C24.6457 22.763 22.7932 22.8149 19.0856 22.9163C17.3306 22.9658 15.5366 23 14 23C12.3045 22.995 10.6091 22.9671 8.9144 22.9163C5.2081 22.8149 3.3543 22.7642 2.1765 21.5828C1 20.4014 1 18.5659 1 14.8975Z" stroke="#E9FAF7" stroke-width="2"/>
</svg>
